<?xml version="1.0" encoding="UTF-8" standalone="no"?>
<!-- Created with Inkscape (http://www.inkscape.org/) -->

<svg
   xmlns:dc="http://purl.org/dc/elements/1.1/"
   xmlns:cc="http://creativecommons.org/ns#"
   xmlns:rdf="http://www.w3.org/1999/02/22-rdf-syntax-ns#"
   xmlns:svg="http://www.w3.org/2000/svg"
   xmlns="http://www.w3.org/2000/svg"
   xmlns:sodipodi="http://sodipodi.sourceforge.net/DTD/sodipodi-0.dtd"
   xmlns:inkscape="http://www.inkscape.org/namespaces/inkscape"
   id="svg2"
   version="1.1"
   inkscape:version="0.48.4 r9939"
   xml:space="preserve"
   width="29.823126"
   height="28.076"
   viewBox="0 0 29.823126 28.076"
   sodipodi:docname="logomatua.svg"
   inkscape:export-filename="logomatua.png"
   inkscape:export-xdpi="90"
   inkscape:export-ydpi="90"><metadata
     id="metadata8"><rdf:RDF><cc:Work
         rdf:about=""><dc:format>image/svg+xml</dc:format><dc:type
           rdf:resource="http://purl.org/dc/dcmitype/StillImage" /><dc:title></dc:title></cc:Work></rdf:RDF></metadata><defs
     id="defs6" /><sodipodi:namedview
     pagecolor="#ffffff"
     bordercolor="#666666"
     borderopacity="1"
     objecttolerance="10"
     gridtolerance="10"
     guidetolerance="10"
     inkscape:pageopacity="0"
     inkscape:pageshadow="2"
     inkscape:window-width="640"
     inkscape:window-height="480"
     id="namedview4"
     showgrid="false"
     inkscape:zoom="8.4057557"
     inkscape:cx="14.911563"
     inkscape:cy="14.038"
     inkscape:window-x="33"
     inkscape:window-y="24"
     inkscape:window-maximized="0"
     inkscape:current-layer="g10" /><g
     id="g10"
     inkscape:groupmode="layer"
     inkscape:label="logomatua"
     transform="matrix(1.25,0,0,-1.25,1.25,26.826)"><path
       d="m 9.6454,15.0797 c 0.0037,0.9173 0.0879,2.9384 0.3133,3.8308 0.0734,0.2908 0.2027,0.8277 0.549,0.7866 0.1922,-0.2835 0.0284,-0.6644 0.4289,-0.9315 0.2852,-0.1902 0.8062,-0.1715 1.0508,0.0562 0.2268,0.2109 0.3291,0.6593 0.1565,1.023 -0.3702,0.7804 -1.8468,0.9113 -2.7133,-0.1483 C 7.7726,17.6689 8.5757,11.7439 7.9206,9.0034 7.852,8.7171 7.7505,8.2026 7.382,8.2219 7.2601,8.4753 7.2814,8.7849 7.1195,8.9938 6.7884,9.4218 5.9905,9.337 5.7438,8.8818 5.6129,8.6406 5.6299,8.276 5.7455,8.0388 6.1288,7.2522 7.6779,7.2062 8.4433,8.1887 c 1.1389,1.4624 1.1922,5.0015 1.2021,6.891"
       style="fill:#052c71;fill-opacity:1;fill-rule:evenodd;stroke:none"
       id="path12"
       inkscape:connector-curvature="0" /><g
       id="g14"><path
         d="M 4.4274,12.6751 C 4.4362,13.21 4.441,13.4289 4.4382,13.1615 4.4348,12.894 4.4277,12.4563 4.4215,12.189 4.4158,11.9217 4.4181,12.1405 4.4274,12.6751 Z m 4.809,-2.4213 c 0.618,0.1321 1.6078,0.3911 1.6365,1.1857 l 0.0445,2.7873 0.0442,2.787 -0.1551,0.1293 c -0.1085,0.0901 -0.2044,0.1446 -0.3189,0.1803 -0.1667,0.0521 -0.5573,0.1122 -0.718,0.1108 l -0.0896,-8e-4 0.0023,0.1286 0.0023,0.1287 0.4759,0.0051 c 0.2614,0.0029 0.9595,0.0029 1.5511,6e-4 l 1.0758,-0.0045 -0.01,-0.0956 -0.0099,-0.0958 -0.1888,-0.0178 C 12.0345,17.4314 11.6498,17.2568 11.4843,16.986 11.4273,16.8928 11.4262,16.8644 11.3797,14.1228 L 11.3326,11.3539 C 11.2037,10.0718 9.76,9.4595 7.7369,9.6211 6.376,9.6823 4.4504,10.1591 4.4201,11.5418 l 0.0362,2.1266 0.0346,3.1858 C 4.4419,17.1258 4.1715,17.339 3.346,17.405 l 0.0238,0.2483 4.5593,0.0306 -6e-4,-0.0096 L 7.9257,17.6267 7.9149,17.4356 C 7.4948,17.418 7.0832,17.3494 6.7326,16.9189 l 0.0017,-5.082 0.0487,-1.0641 c 6e-4,-0.4527 1.5993,-0.6219 2.4534,-0.519"
         style="fill:#eb6e00;fill-opacity:0.99199997;fill-rule:evenodd;stroke:none"
         id="path16"
         inkscape:connector-curvature="0" /></g><g
       id="g18"><path
         d="m 11.2082,14.9576 c 0.6477,1.2931 1.4301,2.8196 1.4451,2.8196 0.0074,3e-4 0.4844,-0.9403 1.0601,-2.0903 l 2.0104,-3.937 c 0.633,-1.279 0.6599,-1.3238 0.9519,-1.5775 0.2219,-0.193 0.3926,-0.2588 0.663,-0.256 l 0.1034,9e-4 0.0111,-0.0765 c 0.0059,-0.0423 0.0105,-0.0942 0.0102,-0.1157 l -8e-4,-0.0391 -2.2697,-0.0235 -2.2703,-0.0236 0.002,0.114 0.002,0.1139 0.5289,0.0122 c 0.5899,0.0139 0.6228,0.0199 0.6831,0.1259 0.0406,0.0708 0.0445,0.2177 0.0091,0.3498 -0.0144,0.0547 -0.1919,0.413 -0.394,0.7968 -0.2021,0.3838 -0.4144,0.8532 -0.3881,0.7319 -0.0119,0.0337 -0.0195,0.0612 -0.0235,0.0833 -0.0791,-0.0235 -0.1616,-0.0479 -0.2486,-0.0728 -0.5255,-0.1321 -0.8762,-0.1205 -1.4567,-0.0955 l 0,0 c -0.4655,0.0207 -0.9559,0.0722 -1.2246,0.1281 -0.1142,0.0241 -0.2117,0.0434 -0.2168,0.0434 -0.0037,0 -0.0065,0.0056 -0.008,0.0138 C 9.7977,11.228 9.4983,10.7002 9.4853,10.6594 9.4065,10.4162 9.4462,10.2634 9.6287,10.1072 9.8147,9.9482 9.9488,9.9065 10.3031,9.8974 L 10.5596,9.8909 10.5681,9.8396 C 10.5729,9.8113 10.5789,9.7566 10.5817,9.718 L 10.5866,9.6477 9.1355,9.6327 C 7.734,9.6182 7.685,9.6185 7.6853,9.6483 l 0,0 c 3e-4,0.017 -0.0043,0.064 -0.0099,0.1043 L 7.6649,9.8263 7.9055,9.8824 c 0.4794,0.112 0.6588,0.1982 0.8295,0.3997 0.0901,0.1069 0.3653,0.5667 0.7356,1.2878 l 1.7376,3.3877 z"
         style="fill:#042b70;fill-opacity:0.99199997;fill-rule:evenodd;stroke:none"
         id="path20"
         inkscape:connector-curvature="0" /></g><g
       id="g22"><g
         id="g24"><g
           id="g26"><path
             d="m 11.4446,12.7868 c 0.0204,-0.0488 0.068,-0.0805 0.1208,-0.0805 l 1.6574,0 c 0.072,0 0.1306,0.0584 0.1306,0.131 l 0,0.3923 c 0,0.0723 -0.0583,0.1309 -0.1306,0.1309 -0.0723,0 -0.131,-0.0586 -0.131,-0.1309 l 0,-0.2617 -1.2121,0 0.5993,0.6032 c 0.0481,0.0485 0.051,0.1253 0.0068,0.1772 l -0.6367,0.7461 1.2427,0 0,-0.0873 c 0,-0.0723 0.0587,-0.131 0.131,-0.131 0.0723,0 0.1306,0.0587 0.1306,0.131 l 0,0.218 c 0,0.0723 -0.0583,0.1309 -0.1306,0.1309 l -1.6574,0 c -0.0511,0 -0.0973,-0.0297 -0.1188,-0.0759 -0.0213,-0.0465 -0.0139,-0.101 0.0193,-0.1398 l 0.7426,-0.8702 -0.7358,-0.7407 c -0.0375,-0.0377 -0.0482,-0.0938 -0.0281,-0.1426"
             style="fill:#ec6f01;fill-opacity:1;fill-rule:evenodd;stroke:none"
             id="path28"
             inkscape:connector-curvature="0" /></g></g><g
         id="g30" /><g
         id="g32" /><g
         id="g34" /><g
         id="g36" /><g
         id="g38" /><g
         id="g40" /><g
         id="g42" /><g
         id="g44" /><g
         id="g46" /><g
         id="g48" /><g
         id="g50" /><g
         id="g52" /><g
         id="g54" /><g
         id="g56" /><g
         id="g58" /></g><path
       d="M 1.7586,4.0431 1.3425,3.3698 C 1.334,3.3559 1.1548,3.0489 1.1486,3.0489 c -0.0031,0 -0.0283,0.0573 -0.1905,0.3209 l -0.4158,0.6733 -0.5018,0 0,-2.2233 0.5239,0 0,0.5432 c 0,0.5272 -0.019,0.7877 -0.0159,0.7877 0.0111,0 0.4224,-0.7106 0.4638,-0.7812 l 0.276,0 c 0.0414,0.0706 0.453,0.7812 0.4638,0.7812 0.0031,0 -0.0159,-0.2605 -0.0159,-0.7877 l 0,-0.5432 0.5241,0 0,2.2233 -0.5017,0 z m 18.9128,0.9527 0,0.3937 0.8478,0 0,0.4669 -0.8478,0 0,0.3654 1.0828,0 0,0.4986 -1.6166,0 0,-2.2232 1.6356,0 0,0.4986 -1.1018,0 z m -2.7899,1.7246 0,-2.2232 0.9717,0 c 0.635,0 1.1495,0.4351 1.1495,1.1021 0,0.6667 -0.5145,1.1211 -1.1495,1.1211 l -0.9717,0 z m 0.5335,-1.7246 0,1.226 0.4382,0 c 0.3175,0 0.5939,-0.2415 0.5939,-0.6225 0,-0.3813 -0.2764,-0.6035 -0.5939,-0.6035 l -0.4382,0 z m -2.1501,-0.4986 0.5749,0 -0.8892,2.2232 -0.5052,0 -0.8748,-2.1875 0,2.1875 -0.5017,0 -0.4161,-0.6735 C 13.6443,6.0333 13.4649,5.7263 13.4592,5.7263 c -0.0034,0 -0.0286,0.0572 -0.1908,0.3206 l -0.4158,0.6735 -0.5018,0 0,-1.9103 -0.0025,0.0045 -0.0907,-0.0484 -0.7818,1.9542 -0.5049,0 -0.8481,-2.1201 -0.43,0.7164 c 0.2571,0.1204 0.4,0.343 0.4,0.6414 0,0.4573 -0.3368,0.7623 -0.8955,0.7623 l -0.8289,0 0,-2.2232 0.5335,0 0,0.7242 0.273,0 0.413,-0.7242 1.0687,0 0.127,0.3495 0.8795,0 0.1214,-0.3339 -0.1951,-0.1046 0.1523,-0.2795 0.7877,0.3271 -0.021,0.0414 0.3663,0 0,0.5431 c 0,0.5272 -0.019,0.7874 -0.0159,0.7874 0.0111,0 0.4224,-0.7103 0.4638,-0.7812 l 0.2763,0 c 0.0414,0.0706 0.4527,0.7812 0.4635,0.7812 0.0031,0 -0.0159,-0.2605 -0.0159,-0.7874 l 0,-0.5431 1.0846,0 0.1269,0.3495 0.8799,0 0.127,-0.3495 z m -0.8354,0.8161 0.1591,0.432 c 0.1627,0.4345 0.0561,0.4345 0.2191,0 l 0.1587,-0.432 -0.5369,0 z m -4.4744,0 0.1587,0.432 c 0.163,0.4348 0.0561,0.4342 0.2191,0 l 0.1588,-0.432 -0.5366,0 z m -2.0532,0.9085 0.3682,0 c 0.3541,0 0.3538,-0.5273 0,-0.5273 l -0.3682,0 0,0.5273 z M 7.6745,4.6783 c 0,-0.0034 -0.0034,-0.0352 -0.0034,-0.1811 l 0.4575,0 0,1.2577 -1.0386,0 0,-0.4289 0.5845,0 0,-0.0031 C 7.611,5.1576 7.4554,4.9734 7.0997,4.9734 c -0.3654,0 -0.6288,0.2446 -0.6288,0.6352 0,0.3654 0.2285,0.6288 0.597,0.6288 0.1746,0 0.362,-0.0791 0.4669,-0.2064 l 0.5428,0.1431 c -0.1998,0.362 -0.5777,0.5908 -1.0097,0.5908 -0.6384,0 -1.1528,-0.4862 -1.1528,-1.1563 0,-0.6701 0.5144,-1.1559 1.1528,-1.1559 0.2191,0 0.4731,0.0859 0.6032,0.2256 l 0.0034,0 z M 3.5348,5.6086 c 0,-0.6701 0.5145,-1.1559 1.1529,-1.1559 0.6383,0 1.1559,0.4858 1.1559,1.1559 0,0.6701 -0.5176,1.1563 -1.1559,1.1563 -0.6384,0 -1.1529,-0.4862 -1.1529,-1.1563 z m 0.5559,0 c 0,0.3748 0.2381,0.6288 0.597,0.6288 0.3619,0 0.6,-0.254 0.6,-0.6288 0,-0.3716 -0.2381,-0.6287 -0.6,-0.6287 -0.3589,0 -0.597,0.2571 -0.597,0.6287 z M 3.6221,4.4972 3.1297,5.3167 C 3.3871,5.4371 3.53,5.6597 3.53,5.9581 3.53,6.4154 3.1932,6.7204 2.6345,6.7204 l -0.8288,0 0,-2.2232 0.5334,0 0,0.7242 0.273,0 0.413,-0.7242 0.597,0 z m -1.283,1.7246 0.3683,0 c 0.354,0 0.3537,-0.5273 0,-0.5273 l -0.3683,0 0,0.5273 z M 0,6.7204 0,4.4972 l 0.5338,0 0,0.6987 0.3143,0 c 0.5463,0 0.8765,0.2857 0.8765,0.7622 0,0.4763 -0.3305,0.7623 -0.8765,0.7623 L 0,6.7204 Z m 0.5338,-1.0259 0,0.5273 0.3047,0 c 0.2064,0 0.3302,-0.0987 0.3302,-0.2637 0,-0.1652 -0.1238,-0.2636 -0.3302,-0.2636 l -0.3047,0 z M 21.8392,3.4778 c -0.1046,0.3493 -0.4413,0.6098 -0.8668,0.6098 -0.4827,0 -0.8322,-0.3144 -0.8322,-0.6605 0,-0.7526 1.1528,-0.6253 1.1528,-0.9817 0,-0.1077 -0.0887,-0.1967 -0.2795,-0.1967 -0.235,0 -0.3937,0.1684 -0.451,0.3365 L 20.0514,2.4489 c 0.146,-0.4162 0.4763,-0.6736 0.94,-0.6736 0.5176,0 0.8671,0.2892 0.8671,0.6957 0,0.3812 -0.3464,0.5686 -0.6766,0.6891 -0.2699,0.0986 -0.4921,0.1525 -0.4921,0.2985 0,0.2293 0.5321,0.2556 0.635,-0.1205 l 0.5144,0.1397 z m -2.2974,-1.658 0.5745,0 -0.8892,2.2233 -0.5048,0 -0.8893,-2.2233 0.5749,0 0.127,0.3496 0.8796,0 0.1273,-0.3496 z m -0.8354,0.8164 0.1587,0.432 c 0.163,0.4343 0.0562,0.4343 0.2192,0 l 0.1587,-0.432 -0.5366,0 z m -0.7957,0.8606 c -0.1967,0.3558 -0.5715,0.5908 -1.0097,0.5908 -0.6384,0 -1.1528,-0.4859 -1.1528,-1.156 0,-0.6701 0.5144,-1.1563 1.1528,-1.1563 0.4669,0 0.8637,0.2605 1.048,0.6543 l -0.54,0.1397 C 17.3169,2.4171 17.1136,2.3091 16.901,2.3091 c -0.3461,0 -0.5973,0.2381 -0.5973,0.6225 0,0.3651 0.2288,0.6287 0.5973,0.6287 0.1746,0 0.3651,-0.0794 0.4669,-0.2063 l 0.5428,0.1428 z m -2.4247,-1.677 0,2.2233 -0.5335,0 0,-2.2233 0.5335,0 z m -2.6184,2.2233 0,-0.4987 0.667,0 0,-1.7246 0.5335,0 0,1.7246 0.6763,0 0,0.4987 -1.8768,0 z m -0.313,-2.2233 0.5749,0 -0.8892,2.2233 -0.5049,0 -0.8892,-2.2233 0.5749,0 0.127,0.3496 0.8796,0 0.1269,-0.3496 z m -0.835,0.8164 0.1587,0.432 c 0.163,0.434 0.0561,0.4346 0.2191,0 l 0.1588,-0.432 -0.5366,0 z M 10.2317,4.0431 9.8155,3.3698 C 9.807,3.3559 9.6279,3.0489 9.6219,3.0489 c -0.0031,0 -0.0286,0.0573 -0.1905,0.3209 l -0.4161,0.6733 -0.5017,0 0,-2.2233 0.5238,0 0,0.5432 c 0,0.5272 -0.019,0.7877 -0.0159,0.7877 0.0111,0 0.4224,-0.7106 0.4638,-0.7812 l 0.2764,0 c 0.0414,0.0706 0.4527,0.7812 0.4634,0.7812 0.0034,0 -0.0156,-0.2605 -0.0156,-0.7877 l 0,-0.5432 0.5239,0 0,2.2233 -0.5017,0 z m -3.2188,-1.7246 0,0.394 0.8479,0 0,0.4666 -0.8479,0 0,0.3653 1.0831,0 0,0.4987 -1.6166,0 0,-2.2233 1.6356,0 0,0.4987 -1.1021,0 z m -2.6183,1.7246 0,-0.4987 0.6667,0 0,-1.7246 0.5337,0 0,1.7246 0.6764,0 0,0.4987 -1.8768,0 z m -0.313,-2.2233 0.5749,0 -0.8893,2.2233 -0.5048,0 -0.8892,-2.2233 0.5745,0 0.1273,0.3496 0.8796,0 0.127,-0.3496 z m -0.8351,0.8164 0.1588,0.432 c 0.163,0.4343 0.0561,0.4343 0.2191,0 l 0.1587,-0.432 -0.5366,0 z"
       style="fill:#052c71;fill-opacity:1;fill-rule:evenodd;stroke:none"
       id="path60"
       inkscape:connector-curvature="0" /><path
       d="m 3.5751,15.0897 4.0087,0 0,-2.6706 -4.0087,0 0,2.6706 z"
       style="fill:#ffffff;fill-opacity:1;fill-rule:evenodd;stroke:none"
       id="path62"
       inkscape:connector-curvature="0" /><g
       id="g64"><g
         id="g66"><g
           id="g68"><path
             d="m 6.0602,13.0467 c -0.3172,0.2481 -0.0936,1.268 -0.0936,1.268 0,0 0.3473,0 0.3878,0 0.0403,0 0.199,0.0255 0.199,0.2151 0,0.2339 -0.1939,0.2194 -0.1939,0.2194 0,0 -1.0621,0 -1.4269,0 -0.2342,0 -0.4456,-0.2681 -0.567,-0.46 -0.0646,-0.1024 -0.028,-0.1313 0.0828,-0.0828 0.3889,0.1704 0.4986,0.1088 0.4986,0.1088 0.0272,-0.1309 0.0366,-0.7228 -0.0632,-0.9564 -0.1012,-0.2199 -0.288,-0.4986 -0.0139,-0.6624 0.214,-0.1213 0.4385,0.1278 0.4164,0.5522 -0.0105,0.2245 -0.028,1.0661 -0.028,1.0661 l 0.3574,0 C 5.6047,14.1834 5.544,13.5142 5.6072,13.1173 5.6733,12.4551 6.393,12.5836 6.5273,12.9586 6.5605,13.0623 6.5529,13.142 6.5279,13.2021 6.4823,13.3138 6.406,13.3194 6.4145,13.2673 6.4196,13.2341 6.4165,13.2015 6.4111,13.172 6.3955,13.0813 6.2101,12.9393 6.0602,13.0467"
             style="fill:#ec6f01;fill-opacity:1;fill-rule:evenodd;stroke:none"
             id="path70"
             inkscape:connector-curvature="0" /></g></g><g
         id="g72" /><g
         id="g74" /><g
         id="g76" /><g
         id="g78" /><g
         id="g80" /><g
         id="g82" /><g
         id="g84" /><g
         id="g86" /><g
         id="g88" /><g
         id="g90" /><g
         id="g92" /><g
         id="g94" /><g
         id="g96" /><g
         id="g98" /><g
         id="g100" /></g><text
       transform="matrix(1,0,0,-1,0.8768,0.0218)"
       style="font-style:italic;font-variant:normal;font-weight:bold;font-size:1.66900003px;font-family:Arial;-inkscape-font-specification:Arial-BoldItalicMT;writing-mode:lr-tb;fill:#052c71;fill-opacity:1;fill-rule:nonzero;stroke:none"
       id="text102"><tspan
         x="0 1.205018 2.224777 2.6887591 3.6167231 4.5446868 5.1939278 6.121892 6.5858741 7.6056328 8.533597 9.5533562 10.017338 11.037097 11.965061 12.429043 12.8313 14.036318 14.592095 15.056077 15.984041 17.003799 17.559578 18.02356 18.951523"
         y="0"
         sodipodi:role="line"
         id="tspan104">Universidad del Atlántico</tspan></text>
</g></svg>