<?xml version="1.0" encoding="UTF-8"?>
<!DOCTYPE svg PUBLIC "-//W3C//DTD SVG 1.1//EN" "http://www.w3.org/Graphics/SVG/1.1/DTD/svg11.dtd">
<!-- Creator: CorelDRAW X7 -->
<svg xmlns="http://www.w3.org/2000/svg" xml:space="preserve" width="27.7176mm" height="25.617mm" version="1.1" style="shape-rendering:geometricPrecision; text-rendering:geometricPrecision; image-rendering:optimizeQuality; fill-rule:evenodd; clip-rule:evenodd"
viewBox="0 0 1034 956"
 xmlns:xlink="http://www.w3.org/1999/xlink">
 <defs>
  <style type="text/css">
   <![CDATA[
    .fil0 {fill:#052C71}
    .fil3 {fill:#EC6F01}
    .fil4 {fill:white}
    .fil2 {fill:#042B70;fill-opacity:0.992157}
    .fil1 {fill:#EB6E00;fill-opacity:0.992157}
   ]]>
  </style>
 </defs>
 <g id="Capa_x0020_1">
  <metadata id="CorelCorpID_0Corel-Layer"/>
  <path class="fil0" d="M452 255c0,-44 4,-139 15,-182 3,-13 9,-39 26,-37 9,14 1,32 20,44 13,9 38,8 50,-2 10,-10 15,-32 7,-49 -17,-37 -87,-43 -128,7 -79,96 -41,377 -72,506 -3,14 -8,38 -25,37 -6,-12 -5,-26 -13,-36 -15,-21 -53,-17 -65,5 -6,11 -5,29 0,40 18,37 92,39 128,-7 54,-69 56,-237 57,-326z"/>
  <path id="path2987" class="fil1" d="M205 368c0,-25 1,-35 0,-23 0,13 0,34 0,46 -1,13 0,3 0,-23l0 0zm228 115c29,-6 76,-18 77,-56l2 -132 2 -132 -7 -6c-5,-4 -10,-7 -15,-9 -8,-2 -27,-5 -34,-5l-4 0 0 -6 0 -6 22 0c13,0 46,0 74,0l51 0 -1 5 0 4 -9 1c-26,2 -44,11 -52,23 -3,5 -3,6 -5,136l-2 131c-6,61 -75,90 -170,82 -65,-3 -156,-25 -157,-91l1 -101 2 -150c-2,-13 -15,-23 -54,-26l1 -12 216 -2 0 1 0 2 -1 9c-20,1 -39,4 -56,25l0 240 2 50c0,22 76,30 117,25z"/>
  <path id="path2987_0" class="fil2" d="M526 260c30,-61 68,-133 68,-133 1,0 23,44 50,99l96 186c29,61 31,63 45,75 10,9 18,12 31,12l5 0 0 4c1,2 1,4 1,5l0 2 -108 1 -107 1 0 -5 0 -6 25 0c28,-1 30,-1 33,-6 1,-4 2,-10 0,-17 -1,-2 -9,-19 -19,-37 -9,-19 -19,-41 -18,-35 -1,-2 -1,-3 -1,-4 -4,1 -8,2 -12,3 -25,7 -41,6 -69,5l0 0c-22,-1 -45,-3 -58,-6 -5,-1 -10,-2 -10,-2 0,0 0,0 0,-1 -19,36 -33,61 -34,63 -3,11 -2,19 7,26 9,7 15,9 32,10l12 0 1 3c0,1 0,4 0,5l0 4 -68 0c-67,1 -69,1 -69,0l0 0c0,-1 0,-3 0,-5l-1 -4 12 -2c22,-6 31,-10 39,-19 4,-5 17,-27 35,-61l82 -161z"/>
  <g id="_1917821884480">
   <g>
    <g>
     <path class="fil3" d="M537 363c1,2 3,4 6,4l78 0c4,0 6,-3 6,-6l0 -19c0,-3 -2,-6 -6,-6 -3,0 -6,3 -6,6l0 13 -57 0 28 -29c2,-2 2,-6 0,-8l-30 -36 59 0 0 4c0,4 3,7 6,7 4,0 6,-3 6,-7l0 -10c0,-3 -2,-6 -6,-6l-78 0c-3,0 -5,1 -6,4 -1,2 -1,4 1,6l35 41 -35 35c-1,2 -2,5 -1,7z"/>
    </g>
   </g>
   <g>
   </g>
   <g>
   </g>
   <g>
   </g>
   <g>
   </g>
   <g>
   </g>
   <g>
   </g>
   <g>
   </g>
   <g>
   </g>
   <g>
   </g>
   <g>
   </g>
   <g>
   </g>
   <g>
   </g>
   <g>
   </g>
   <g>
   </g>
   <g>
   </g>
  </g>
  <path class="fil0" d="M83 777l-19 32c-8,12 -9,15 -9,15l-1 0c0,0 -1,-3 -9,-15l-19 -32 -24 0 0 105 25 0 0 -26c0,-24 -1,-37 -1,-37l0 0c0,0 9,15 10,16l12 21 13 0 12 -21c1,-1 10,-16 10,-16l0 0c0,0 -1,13 -1,37l0 26 25 0 0 -105 -24 0zm895 -45l0 -19 40 0 0 -22 -40 0 0 -17 51 0 0 -24 -76 0 0 105 77 0 0 -23 -52 0zm-132 -82l0 105 46 0c30,0 55,-20 55,-52 0,-31 -25,-53 -55,-53l-46 0zm25 82l0 -58 21 0c15,0 28,11 28,29 0,18 -13,29 -28,29l-21 0zm-101 23l27 0 -42 -105 -24 0 -41 104 0 -104 -24 0 -20 32c-8,13 -9,15 -9,15l0 0c0,0 -1,-2 -9,-15l-20 -32 -24 0 0 91 0 -1 -4 3 -37 -93 -24 0 -40 101 -20 -34c12,-6 19,-17 19,-31 0,-21 -16,-36 -43,-36l-39 0 0 105 25 0 0 -34 13 0 20 34 23 0 5 0 22 0 6 -16 42 0 6 16 -10 5 8 13 37 -16 -1 -2 17 0 0 -25c0,-25 -1,-38 0,-38l0 0c0,0 8,15 9,16l12 21 14 0 12 -21c1,-1 9,-16 9,-16l0 0c1,0 0,13 0,38l0 25 24 0 1 0 26 0 6 -16 42 0 6 16zm-40 -38l8 -21c2,-6 5,-15 5,-15l0 0c0,0 3,9 5,15l8 21 -26 0zm-212 0l8 -21c2,-6 5,-15 5,-15l0 0c0,0 3,9 5,15l8 21 -26 0zm-97 -43l18 0c9,0 12,7 12,12 0,6 -3,13 -12,13l-18 0 0 -25zm-58 73c0,0 0,2 0,8l22 0 0 -59 -49 0 0 20 27 0 0 0c-3,8 -10,17 -27,17 -17,0 -30,-12 -30,-30 0,-17 11,-30 28,-30 9,0 18,4 23,10l25 -7c-9,-17 -27,-28 -48,-28 -30,0 -54,23 -54,55 0,32 24,55 54,55 11,0 23,-4 29,-11l0 0zm-196 -44c0,32 25,55 55,55 30,0 55,-23 55,-55 0,-32 -25,-55 -55,-55 -30,0 -55,23 -55,55zm27 0c0,-18 11,-30 28,-30 17,0 28,12 28,30 0,17 -11,30 -28,30 -17,0 -28,-13 -28,-30zm-23 52l-23 -38c12,-6 19,-17 19,-31 0,-21 -16,-36 -42,-36l-40 0 0 105 26 0 0 -34 13 0 19 34 28 0zm-60 -81l17 0c9,0 13,7 13,12 0,6 -4,13 -13,13l-17 0 0 -25zm-111 -24l0 105 25 0 0 -33 15 0c26,0 42,-13 42,-36 0,-22 -16,-36 -42,-36l-40 0zm25 49l0 -25 15 0c9,0 15,5 15,12 0,8 -6,13 -15,13l-15 0zm761 227c3,0 4,0 6,1 2,1 3,2 5,3 1,1 2,3 2,5 1,1 1,4 1,6 0,2 0,4 -1,6 0,2 -1,4 -2,5 -2,1 -3,2 -5,3 -2,1 -3,1 -6,1 -2,0 -4,0 -5,-1 -2,-1 -4,-2 -5,-3 -1,-1 -2,-3 -3,-5 0,-2 -1,-4 -1,-6 0,-2 1,-5 1,-6 1,-2 2,-4 3,-5 1,-1 3,-2 5,-3 1,-1 3,-1 5,-1zm0 26c3,0 5,-1 7,-3 1,-2 2,-5 2,-8 0,-4 -1,-6 -2,-8 -2,-2 -4,-3 -7,-3 -1,0 -2,0 -3,1 -2,0 -2,1 -3,2 -1,1 -1,2 -2,3 0,2 0,3 0,5 0,3 0,6 2,8 1,2 3,3 6,3zm-16 -21c0,1 0,1 0,1 0,0 -1,0 -1,0 0,0 0,0 -1,0 0,-1 -1,-1 -1,-1 -1,0 -1,-1 -2,-1 -1,0 -2,0 -3,0 -1,0 -2,0 -3,1 -2,0 -3,1 -3,2 -1,1 -2,2 -2,3 0,2 0,3 0,5 0,2 0,3 0,5 1,1 1,2 2,3 1,1 1,2 3,2 1,1 2,1 3,1 1,0 2,0 3,-1 1,0 2,0 2,-1 1,0 1,0 2,-1 0,0 0,0 1,0 0,0 0,0 1,1l1 1c-1,1 -1,2 -2,2 -1,1 -2,1 -3,2 -1,0 -2,1 -3,1 -1,0 -2,0 -3,0 -2,0 -3,0 -5,-1 -2,-1 -3,-2 -4,-3 -1,-1 -2,-3 -3,-5 0,-2 -1,-4 -1,-6 0,-2 1,-4 1,-6 1,-2 2,-4 3,-5 1,-1 2,-2 4,-3 2,-1 4,-1 6,-1 2,0 4,0 5,1 2,0 3,1 5,3l-2 1zm-26 25l-5 0 0 -25 -15 0 0 17c0,1 0,2 1,3 1,0 1,1 2,1 1,0 1,0 2,0 0,-1 0,-1 1,-1 0,0 0,0 1,0 0,-1 0,-1 0,-1 0,0 1,1 1,1l1 2c-1,1 -2,2 -3,2 -1,1 -2,1 -4,1 -2,0 -4,-1 -5,-2 -1,-1 -2,-3 -2,-6l0 -17 -4 0c0,0 0,-1 0,-1 -1,0 -1,0 -1,-1l0 -2 5 0 1 -9c0,-1 1,-1 1,-1 0,0 0,0 1,0l2 0 0 10 20 0 0 29zm2 -39c0,0 0,1 -1,1 0,1 0,1 0,1 -1,1 -1,1 -2,1 0,0 -1,0 -1,0 -1,0 -1,0 -1,0 -1,0 -1,0 -2,-1 0,0 0,0 0,-1 -1,0 -1,-1 -1,-1 0,-1 0,-1 1,-2 0,0 0,-1 0,-1 1,0 1,0 2,-1 0,0 0,0 1,0 0,0 1,0 1,0 1,1 1,1 2,1 0,0 0,1 0,1 1,1 1,1 1,2zm-53 13c1,0 1,-1 2,-1 1,-1 2,-2 2,-2 1,0 2,-1 3,-1 1,0 2,0 3,0 1,0 3,0 4,1 1,0 2,1 3,2 1,1 2,2 2,3 0,2 1,3 1,5l0 19 -6 0 0 -19c0,-2 0,-4 -1,-5 -1,-2 -3,-2 -5,-2 -1,0 -3,0 -4,1 -1,1 -2,2 -4,3l0 22 -5 0 0 -30 3 0c1,0 1,1 2,1l0 3zm-15 12c-2,0 -4,1 -6,1 -1,0 -3,1 -4,1 -1,1 -2,1 -2,2 -1,0 -1,1 -1,2 0,1 0,1 1,2 0,1 0,1 1,1 0,1 0,1 1,1 1,0 1,0 2,0 1,0 2,0 2,0 1,0 2,0 3,-1 0,0 1,0 2,-1 0,0 1,-1 1,-2l0 -6zm-16 -12c1,-1 3,-2 5,-3 2,-1 4,-1 6,-1 2,0 3,0 4,0 2,1 3,2 4,3 1,1 1,2 2,3 0,2 0,3 0,5l0 19 -2 0c0,0 -1,-1 -1,-1 0,0 -1,0 -1,-1l0 -2c-1,0 -2,1 -3,1 0,1 -1,1 -2,2 -1,0 -2,0 -3,1 0,0 -1,0 -3,0 -1,0 -2,0 -3,0 -1,-1 -2,-1 -2,-2 -1,-1 -2,-1 -2,-2 -1,-1 -1,-2 -1,-4 0,-1 1,-2 1,-3 1,-1 2,-2 3,-3 2,-1 4,-2 6,-2 2,-1 5,-1 8,-1l0 -2c0,-3 0,-4 -1,-5 -1,-2 -3,-2 -5,-2 -1,0 -2,0 -3,0 -1,1 -1,1 -2,1 -1,1 -1,1 -2,1 0,1 0,1 -1,1 0,0 -1,0 -1,0 0,-1 0,-1 0,-1l-1 -2zm19 -16l-7 7c0,0 0,1 -1,1 0,0 0,0 -1,0l-3 0 5 -7c0,-1 0,-1 0,-1 1,0 1,0 2,0l5 0zm-24 -1l0 43 -5 0 0 -43 5 0zm-14 43c-2,0 -4,-1 -5,-2 -2,-1 -2,-3 -2,-6l0 -17 -4 0c0,0 0,-1 -1,-1 0,0 0,0 0,-1l0 -2 5 0 1 -9c0,-1 0,-1 0,-1 1,0 1,0 1,0l3 0 0 10 8 0 0 4 -8 0 0 17c0,1 0,2 1,3 0,0 1,1 2,1 1,0 1,0 1,0 1,-1 1,-1 1,-1 1,0 1,0 1,0 0,-1 1,-1 1,-1 0,0 0,1 0,1l2 2c-1,1 -2,2 -3,2 -1,1 -3,1 -4,1zm-20 -16l-7 -17c0,0 0,-1 -1,-2 0,0 0,-1 0,-2 -1,2 -1,3 -1,4l-7 17 16 0zm11 16l-4 0c-1,0 -1,-1 -1,-1 -1,0 -1,0 -1,-1l-4 -10 -18 0 -4 10c0,1 -1,1 -1,1 0,0 -1,1 -1,1l-5 0 17 -42 6 0 16 42zm-56 -43l0 43 -5 0 0 -43 5 0zm-13 25c0,-2 0,-3 -1,-4 0,-1 -1,-1 -1,-2 -1,-1 -2,-1 -3,-2 0,0 -2,0 -3,0 -2,0 -4,0 -6,2 -1,1 -2,3 -2,6l16 0zm4 13c-1,1 -1,2 -2,2 -1,1 -2,1 -3,2 -1,0 -2,0 -3,1 -1,0 -2,0 -4,0 -2,0 -3,0 -5,-1 -2,-1 -3,-2 -5,-3 -1,-1 -2,-3 -2,-5 -1,-2 -1,-4 -1,-7 0,-2 0,-4 0,-5 1,-2 2,-4 3,-5 1,-1 3,-2 4,-3 2,-1 4,-1 6,-1 2,0 4,0 5,1 2,0 3,1 4,2 1,1 2,3 3,4 0,2 0,4 0,6 0,1 0,1 0,1 0,1 0,1 -1,1l-19 0c0,2 0,3 0,5 1,1 1,2 2,3 1,1 2,2 3,2 1,1 3,1 4,1 1,0 2,0 3,-1 1,0 2,0 3,-1 0,0 1,0 1,-1 1,0 1,0 2,0 0,0 0,0 1,1l1 1zm-34 -18c-1,-1 -2,-2 -3,-3 -1,0 -3,0 -4,0 -3,0 -5,1 -6,3 -2,2 -3,4 -3,8 0,2 1,4 1,5 0,1 1,2 1,3 1,1 2,2 3,2 1,1 2,1 3,1 2,0 3,-1 4,-1 2,-1 3,-2 4,-4l0 -14zm5 -20l0 43 -3 0c-1,0 -1,-1 -1,-2l-1 -3c-1,1 -3,3 -4,4 -2,0 -4,1 -6,1 -1,0 -3,0 -4,-1 -2,-1 -3,-2 -4,-3 -1,-1 -2,-3 -2,-5 -1,-1 -1,-4 -1,-6 0,-2 0,-4 1,-6 1,-2 1,-4 2,-5 2,-1 3,-2 4,-3 2,-1 4,-1 6,-1 2,0 3,0 4,1 2,0 3,1 4,2l0 -16 5 0zm-52 20c-1,-1 -2,-2 -4,-3 -1,0 -2,0 -3,0 -3,0 -5,1 -7,3 -1,2 -2,4 -2,8 0,2 0,4 1,5 0,1 0,2 1,3 1,1 2,2 2,2 1,1 2,1 4,1 1,0 3,-1 4,-1 1,-1 2,-2 4,-4l0 -14zm5 -20l0 43 -3 0c-1,0 -2,-1 -2,-2l0 -3c-1,1 -3,3 -4,4 -2,0 -4,1 -6,1 -2,0 -3,0 -5,-1 -1,-1 -2,-2 -3,-3 -1,-1 -2,-3 -2,-5 -1,-1 -1,-4 -1,-6 0,-2 0,-4 1,-6 0,-2 1,-4 2,-5 1,-1 3,-2 4,-3 2,-1 4,-1 6,-1 1,0 3,0 4,1 1,0 3,1 4,2l0 -16 5 0zm-34 29c-3,0 -5,1 -7,1 -1,0 -3,1 -4,1 -1,1 -1,1 -2,2 0,0 -1,1 -1,2 0,1 0,1 1,2 0,1 0,1 1,1 0,1 1,1 1,1 1,0 2,0 2,0 1,0 2,0 3,0 0,0 1,0 2,-1 0,0 1,0 2,-1 0,0 1,-1 2,-2l0 -6zm-17 -12c1,-1 3,-2 5,-3 2,-1 4,-1 6,-1 2,0 3,0 5,0 1,1 2,2 3,3 1,1 1,2 2,3 0,2 1,3 1,5l0 19 -3 0c0,0 -1,-1 -1,-1 0,0 0,0 -1,-1l0 -2c-1,0 -2,1 -2,1 -1,1 -2,1 -3,2 0,0 -1,0 -2,1 -1,0 -2,0 -3,0 -1,0 -3,0 -4,0 -1,-1 -1,-1 -2,-2 -1,-1 -1,-1 -2,-2 0,-1 -1,-2 -1,-4 0,-1 1,-2 1,-3 1,-1 2,-2 3,-3 2,-1 4,-2 6,-2 2,-1 5,-1 9,-1l0 -2c0,-3 -1,-4 -2,-5 -1,-2 -2,-2 -4,-2 -2,0 -3,0 -3,0 -1,1 -2,1 -3,1 0,1 -1,1 -1,1 -1,1 -1,1 -2,1 0,0 0,0 -1,0 0,-1 0,-1 0,-1l-1 -2zm-10 3c-1,-1 -2,-2 -3,-3 -1,0 -2,0 -4,0 -2,0 -4,1 -6,3 -1,2 -2,4 -2,8 0,2 0,4 0,5 1,1 1,2 2,3 0,1 1,2 2,2 1,1 2,1 3,1 2,0 4,-1 5,-1 1,-1 2,-2 3,-4l0 -14zm5 -20l0 43 -3 0c0,0 -1,-1 -1,-2l-1 -3c-1,1 -2,3 -4,4 -1,0 -3,1 -5,1 -2,0 -4,0 -5,-1 -1,-1 -2,-2 -3,-3 -1,-1 -2,-3 -3,-5 0,-1 0,-4 0,-6 0,-2 0,-4 0,-6 1,-2 2,-4 3,-5 1,-1 2,-2 4,-3 1,-1 3,-1 5,-1 2,0 4,0 5,1 1,0 2,1 3,2l0 -16 5 0zm-29 13l0 30 -6 0 0 -30 6 0zm1 -9c0,0 0,1 -1,1 0,1 0,1 0,2 -1,0 -1,0 -2,0 0,1 0,1 -1,1 0,0 -1,0 -1,-1 -1,0 -1,0 -2,0 0,-1 0,-1 0,-2 -1,0 -1,-1 -1,-1 0,-1 0,-1 1,-1 0,-1 0,-1 0,-2 1,0 1,0 2,0 0,-1 1,-1 1,-1 1,0 1,0 1,1 1,0 1,0 2,0 0,1 0,1 0,2 1,0 1,0 1,1zm-12 14c0,0 0,1 -1,1 0,0 -1,0 -1,-1 0,0 -1,0 -1,0 -1,-1 -1,-1 -2,-1 -1,0 -2,0 -3,0 -1,0 -1,0 -2,0 -1,0 -1,0 -2,1 0,0 -1,1 -1,1 0,1 0,1 0,2 0,1 0,1 0,2 1,0 1,1 2,1 1,0 2,1 2,1 1,0 2,1 3,1 1,0 2,1 3,1 1,0 2,1 2,1 1,1 2,2 2,3 1,0 1,1 1,3 0,1 0,2 -1,3 0,1 -1,2 -2,3 -1,1 -2,2 -4,2 -1,1 -2,1 -4,1 -2,0 -4,0 -6,-1 -1,-1 -3,-2 -4,-3l1 -2c0,0 0,0 1,0 0,0 0,0 1,0 0,0 0,0 1,0 0,0 0,1 1,1 1,0 1,1 2,1 1,0 2,0 3,0 1,0 2,0 3,0 0,0 1,-1 2,-1 0,-1 0,-1 1,-2 0,0 0,-1 0,-2 0,0 0,-1 -1,-2 0,0 -1,-1 -1,-1 -1,0 -2,-1 -3,-1 -1,0 -2,0 -3,-1 -1,0 -2,0 -2,-1 -1,0 -2,-1 -3,-1 -1,-1 -1,-2 -2,-3 0,0 0,-2 0,-3 0,-1 0,-2 0,-3 1,-1 2,-2 2,-3 1,0 2,-1 4,-2 1,0 2,0 4,0 2,0 4,0 5,1 2,0 3,1 4,2l-1 2zm-30 1c1,-2 2,-4 3,-5 2,-1 3,-1 5,-1 1,0 2,0 2,0 1,0 1,0 2,1l-1 3c0,1 0,1 -1,1 0,0 0,0 -1,0 0,0 -1,0 -1,0 -1,0 -2,0 -3,0 -1,0 -1,1 -2,1 0,1 -1,2 -1,2 -1,1 -1,2 -2,3l0 19 -5 0 0 -30 3 0c1,0 1,0 1,1 0,0 1,0 1,1l0 4zm-13 6c0,-2 0,-3 0,-4 -1,-1 -1,-1 -2,-2 0,-1 -1,-1 -2,-2 -1,0 -2,0 -3,0 -3,0 -5,0 -6,2 -2,1 -3,3 -3,6l16 0zm4 13c0,1 -1,2 -2,2 -1,1 -2,1 -3,2 -1,0 -2,0 -3,1 -1,0 -2,0 -3,0 -2,0 -4,0 -6,-1 -1,-1 -3,-2 -4,-3 -1,-1 -2,-3 -3,-5 -1,-2 -1,-4 -1,-7 0,-2 0,-4 1,-5 0,-2 1,-4 2,-5 2,-1 3,-2 5,-3 1,-1 3,-1 6,-1 1,0 3,0 4,1 2,0 3,1 4,2 1,1 2,3 3,4 0,2 1,4 1,6 0,1 0,1 0,1 -1,1 -1,1 -1,1l-20 0c0,2 0,3 1,5 0,1 1,2 2,3 0,1 1,2 2,2 2,1 3,1 4,1 2,0 3,0 4,-1 1,0 1,0 2,-1 1,0 1,0 2,-1 0,0 1,0 1,0 0,0 1,0 1,1l1 1zm-24 -25l-12 30 -5 0 -12 -30 4 0c1,0 1,0 1,1 0,0 1,0 1,0l7 19c0,1 1,2 1,2 0,1 0,2 0,2 0,0 1,-1 1,-2 0,0 0,-1 0,-2l8 -19c0,0 0,0 1,-1 0,0 0,0 1,0l4 0zm-31 0l0 30 -5 0 0 -30 5 0zm1 -9c0,0 0,1 0,1 0,1 -1,1 -1,2 0,0 -1,0 -1,0 -1,1 -1,1 -2,1 0,0 -1,0 -1,-1 -1,0 -1,0 -1,0 -1,-1 -1,-1 -1,-2 0,0 0,-1 0,-1 0,-1 0,-1 0,-1 0,-1 0,-1 1,-2 0,0 0,0 1,0 0,-1 1,-1 1,-1 1,0 1,0 2,1 0,0 1,0 1,0 0,1 1,1 1,2 0,0 0,0 0,1zm-31 13c1,0 1,-1 2,-1 1,-1 1,-2 2,-2 1,0 2,-1 3,-1 1,0 2,0 3,0 1,0 3,0 4,1 1,0 2,1 3,2 1,1 1,2 2,3 0,2 1,3 1,5l0 19 -6 0 0 -19c0,-2 0,-4 -1,-5 -1,-2 -3,-2 -5,-2 -1,0 -3,0 -4,1 -1,1 -3,2 -4,3l0 22 -5 0 0 -30 3 0c1,0 1,1 2,1l0 3zm-26 21c1,0 3,0 4,-1 2,0 3,-1 4,-2 1,-1 1,-3 2,-4 0,-1 0,-3 0,-5l0 -25 6 0 0 25c0,3 0,5 -1,7 -1,2 -2,4 -3,5 -2,2 -3,3 -6,4 -2,1 -4,1 -6,1 -3,0 -5,0 -7,-1 -2,-1 -4,-2 -6,-4 -1,-1 -2,-3 -3,-5 -1,-2 -1,-4 -1,-7l0 -25 6 0 0 25c0,2 0,4 0,5 1,1 2,3 3,4 0,1 2,2 3,2 1,1 3,1 5,1zm787 -147c-5,-17 -21,-29 -42,-29 -22,0 -39,15 -39,31 0,19 15,26 27,30 15,6 28,8 28,17 0,5 -5,9 -14,9 -11,0 -18,-8 -21,-16l-24 6c7,20 22,32 44,32 25,0 41,-13 41,-33 0,-18 -16,-27 -32,-32 -12,-5 -23,-7 -23,-14 0,-5 4,-8 12,-8 7,0 16,4 18,13l25 -6zm-109 78l27 0 -42 -105 -24 0 -42 105 27 0 6 -16 42 0 6 16zm-40 -38l8 -21c2,-6 5,-15 5,-15l0 0c0,0 3,9 5,15l8 21 -26 0zm-37 -41c-10,-17 -27,-28 -48,-28 -30,0 -55,23 -55,55 0,31 25,54 55,54 22,0 41,-12 49,-31l-25 -6c-5,7 -14,12 -24,12 -17,0 -28,-11 -28,-29 0,-18 10,-30 28,-30 8,0 17,4 22,10l26 -7zm-115 79l0 -105 -25 0 0 105 25 0zm-124 -105l0 24 31 0 0 81 26 0 0 -81 32 0 0 -24 -89 0zm-15 105l27 0 -42 -105 -24 0 -42 105 27 0 6 -16 42 0 6 16zm-39 -38l7 -21c2,-6 5,-15 5,-15l0 0c1,0 3,9 5,15l8 21 -25 0zm-71 -67l-19 32c-8,12 -9,15 -10,15l0 0c0,0 -1,-3 -9,-15l-19 -32 -24 0 0 105 25 0 0 -26c0,-24 -1,-37 -1,-37l0 0c0,0 9,15 10,16l12 21 13 0 12 -21c1,-1 10,-16 10,-16l0 0c0,0 -1,13 -1,37l0 26 25 0 0 -105 -24 0zm-152 82l0 -19 40 0 0 -22 -40 0 0 -17 51 0 0 -24 -76 0 0 105 77 0 0 -23 -52 0zm-124 -82l0 24 32 0 0 81 25 0 0 -81 32 0 0 -24 -89 0zm-15 105l27 0 -42 -105 -24 0 -42 105 27 0 7 -16 41 0 6 16zm-39 -38l7 -21c2,-6 5,-15 5,-15l0 0c1,0 3,9 6,15l7 21 -25 0z"/>
  <rect class="fil4" x="165" y="254" width="190" height="126"/>
  <g id="_1917821891264">
   <g>
    <g>
     <path class="fil3" d="M282 351c-15,-12 -4,-60 -4,-60 0,0 16,0 18,0 2,0 10,-1 10,-10 0,-11 -10,-11 -10,-11 0,0 -50,0 -67,0 -11,0 -21,13 -27,22 -3,5 -1,6 4,4 18,-8 24,-5 24,-5 1,6 1,34 -3,45 -5,11 -14,24 -1,31 10,6 21,-6 20,-26 -1,-10 -2,-50 -2,-50l17 0c0,6 -3,38 0,57 3,31 37,25 43,7 2,-5 2,-9 0,-11 -2,-6 -5,-6 -5,-4 0,2 0,4 0,5 -1,4 -10,11 -17,6z"/>
    </g>
   </g>
   <g>
   </g>
   <g>
   </g>
   <g>
   </g>
   <g>
   </g>
   <g>
   </g>
   <g>
   </g>
   <g>
   </g>
   <g>
   </g>
   <g>
   </g>
   <g>
   </g>
   <g>
   </g>
   <g>
   </g>
   <g>
   </g>
   <g>
   </g>
   <g>
   </g>
  </g>
 </g>
</svg>
