<?xml version="1.0" encoding="UTF-8" standalone="no"?>
<!-- Created with Inkscape (http://www.inkscape.org/) -->

<svg
   xmlns:osb="http://www.openswatchbook.org/uri/2009/osb"
   xmlns:dc="http://purl.org/dc/elements/1.1/"
   xmlns:cc="http://creativecommons.org/ns#"
   xmlns:rdf="http://www.w3.org/1999/02/22-rdf-syntax-ns#"
   xmlns:svg="http://www.w3.org/2000/svg"
   xmlns="http://www.w3.org/2000/svg"
   xmlns:sodipodi="http://sodipodi.sourceforge.net/DTD/sodipodi-0.dtd"
   xmlns:inkscape="http://www.inkscape.org/namespaces/inkscape"
   id="svg2"
   version="1.1"
   inkscape:version="0.48.4 r9939"
   width="542"
   height="138"
   sodipodi:docname="logoua-4p.pdf"
   inkscape:export-filename="/home/antalcides/Escritorio/Enlace hacia mio/logos/logo_ua2.png"
   inkscape:export-xdpi="90"
   inkscape:export-ydpi="90">
  <metadata
     id="metadata8">
    <rdf:RDF>
      <cc:Work
         rdf:about="">
        <dc:format>image/svg+xml</dc:format>
        <dc:type
           rdf:resource="http://purl.org/dc/dcmitype/StillImage" />
        <dc:title></dc:title>
      </cc:Work>
    </rdf:RDF>
  </metadata>
  <defs
     id="defs6">
    <linearGradient
       id="linearGradient3767"
       osb:paint="solid">
      <stop
         style="stop-color:#000000;stop-opacity:1;"
         offset="0"
         id="stop3769" />
    </linearGradient>
  </defs>
  <sodipodi:namedview
     pagecolor="#ffffff"
     bordercolor="#666666"
     borderopacity="1"
     objecttolerance="10"
     gridtolerance="10"
     guidetolerance="10"
     inkscape:pageopacity="0"
     inkscape:pageshadow="2"
     inkscape:window-width="1328"
     inkscape:window-height="744"
     id="namedview4"
     showgrid="false"
     inkscape:snap-nodes="true"
     inkscape:snap-bbox="false"
     inkscape:snap-smooth-nodes="false"
     inkscape:snap-midpoints="true"
     inkscape:snap-object-midpoints="true"
     inkscape:object-paths="true"
     inkscape:snap-intersection-paths="true"
     inkscape:object-nodes="true"
     inkscape:zoom="0.65460349"
     inkscape:cx="100.8244"
     inkscape:cy="32.360737"
     inkscape:window-x="38"
     inkscape:window-y="24"
     inkscape:window-maximized="1"
     inkscape:current-layer="svg2"
     fit-margin-top="0"
     fit-margin-left="0"
     fit-margin-right="0"
     fit-margin-bottom="0" />
  <flowRoot
     xml:space="preserve"
     id="flowRoot3839"
     style="font-size:72px;font-style:normal;font-weight:normal;line-height:125%;letter-spacing:0px;word-spacing:0px;fill:#000000;fill-opacity:1;stroke:none;font-family:Sans"
     transform="translate(-1026.2717,-275.43701)"><flowRegion
       id="flowRegion3841"><rect
         id="rect3843"
         width="602.03387"
         height="211.52542"
         x="858.30511"
         y="1309.8306"
         style="font-size:72px" /></flowRegion><flowPara
       id="flowPara3845" /></flowRoot>  <flowRoot
     xml:space="preserve"
     id="flowRoot3851"
     style="font-size:144px;font-style:normal;font-weight:normal;line-height:125%;letter-spacing:0px;word-spacing:0px;fill:#000000;fill-opacity:1;stroke:none;font-family:Sans"
     transform="translate(-1026.2717,-275.43701)"><flowRegion
       id="flowRegion3853"><rect
         id="rect3855"
         width="1037.2881"
         height="321.35593"
         x="223.72882"
         y="1200"
         style="font-size:144px" /></flowRegion><flowPara
       id="flowPara3857" /></flowRoot>  <g
     id="g3025"
     transform="matrix(0.29700501,0,0,0.219142,0,-0.04832058)">
    <g
       transform="translate(-208.98305,-66.101692)"
       id="g3879">
      <path
         style="fill:#e97300;fill-opacity:0.99215686;stroke:none"
         d="m 448.98305,67.118642 -0.50847,15.25424 c -22.01105,0.82268 -43.52699,4.78108 -61.52543,31.016948 l 1.52543,327.9661 -41.87784,99.94629 c -39.48361,-19.13794 -68.08254,-54.4737 -76.08826,-98.92934 l 0,-130.67796 -1.01695,-195.76272 C 266.66819,99.202932 252.30694,85.935032 208.98305,81.355932 L 210,66.101692 z"
         id="path2987"
         inkscape:connector-curvature="0"
         sodipodi:nodetypes="ccccccccccc" />
      <path
         style="fill:none;stroke:#000000;stroke-width:1px;stroke-linecap:butt;stroke-linejoin:miter;stroke-opacity:1"
         d="m 448.47458,68.135592 0,3.050847"
         id="path2989"
         inkscape:connector-curvature="0" />
      <path
         style="fill:#e97300;fill-opacity:0.99215686"
         d="m 387.92274,376.40715 c -0.18435,-37.68687 -0.47984,-98.49615 -0.65663,-135.13174 -0.17679,-36.63559 -0.20121,-66.49576 -0.0543,-66.35593 0.33359,0.31741 1.61734,269.43796 1.28685,269.76845 -0.13243,0.13243 -0.39161,-30.59392 -0.57597,-68.28078 z"
         id="path2993"
         inkscape:connector-curvature="0" />
      <path
         style="fill:#e97300;fill-opacity:0.99215686"
         d="m 269.86904,372.71609 c 0,-32.86017 0.0609,-46.30297 0.13533,-29.87288 0.0744,16.43008 0.0744,43.31567 0,59.74576 -0.0744,16.43008 -0.13533,2.98729 -0.13533,-29.87288 z"
         id="path2995"
         inkscape:connector-curvature="0" />
      <path
         style="fill:#00358f;fill-opacity:1;stroke:none"
         d="m 240.85191,692.12497 c 0,-1.04057 -0.27935,-3.93006 -0.62078,-6.42106 l -0.62078,-4.52911 12.56993,-3.29679 c 25.03701,-6.56661 34.36445,-11.76595 43.12044,-24.03638 10.06517,-14.10506 59.58411,-126.84691 125.51134,-285.7569 32.80299,-79.06784 72.45159,-172.37288 73.24732,-172.37288 0.39081,0 26.24138,58.11373 57.44571,129.14162 49.3128,112.24676 54.308,128.54736 57.37096,127.92093 7.57412,33.08207 -38.18644,75.41983 -57.85465,70.19902 -9.45484,2.82444 -24.33942,5.76589 -25.37255,4.6679 -0.47224,-0.50188 -17.72355,-37.63695 -38.33625,-82.52236 -20.6127,-44.88541 -37.70645,-81.59589 -37.98611,-81.57884 -1.15573,0.0705 -113.2608,260.86687 -115.02679,267.59339 -3.90876,14.88818 -1.6857,24.31545 8.02336,34.02452 9.89438,9.89438 16.95405,12.54088 35.54359,13.32447 l 13.45541,0.56717 0.49359,3.16161 c 0.27148,1.73887 0.63541,5.1065 0.80875,7.48362 l 0.31516,4.32204 -76.04382,0 c -73.46423,0 -76.04383,-0.0642 -76.04383,-1.89197 z"
         id="path3827"
         inkscape:connector-curvature="0"
         sodipodi:nodetypes="sscsssssccsscssscsscss" />
      <path
         style="fill:#00358f;fill-opacity:1;stroke:none"
         d="m 515.42818,689.04863 0,-7.00221 27.71187,-0.42135 c 30.91837,-0.47011 32.6393,-0.82159 35.71033,-7.2933 2.0603,-4.34177 2.12773,-13.34596 0.16101,-21.50127 -0.80931,-3.35594 -10.42342,-25.50201 -21.36469,-49.2135 -10.94127,-23.71149 -22.48353,-52.69913 -20.99712,-45.22264 -5.56005,-17.57751 5.9971,-7.41764 10.13127,-9.18978 13.99215,-5.99785 24.20351,-15.29836 32.78774,-21.74134 16.95161,-12.72319 50.28926,-47.63883 45.69576,-39.62875 -7.80155,13.60422 -1.35368,-4.20153 -0.81713,-3.24432 0.42939,0.76602 18.879,44.18579 35.95553,83.51406 34.30023,78.99546 35.76283,81.77715 51.29662,97.55942 11.8089,11.9978 20.80642,16.1499 34.99658,16.1499 l 5.40493,0 0.64671,4.7182 c 0.35568,2.59502 0.6467,5.79841 0.6467,7.11865 l 0,2.40044 -118.98306,0 -118.98305,0 z"
         id="path3829"
         inkscape:connector-curvature="0"
         sodipodi:nodetypes="ccsssscssssssscsscccc" />
      <path
         style="fill:#e97300;fill-opacity:1;stroke:none"
         d="m 446.09974,562.51898 c -24.43124,-1.58214 -50.18773,-5.05333 -64.32485,-8.66899 -6.00643,-1.53618 -11.14086,-2.79307 -11.40983,-2.79307 -0.26897,0 -0.48904,-0.75891 -0.48904,-1.68648 0,-1.62042 20.81973,-56.03617 22.90383,-59.86292 53.97347,39.16805 131.02883,50.74474 189.31036,14.93556 10.63365,-10.68856 16.32437,-20.44322 22.25751,-38.15247 l 4.52833,-13.5162 -0.14934,-171.26033 -0.14935,-171.26034 -8.251,-8.04235 c -5.77255,-5.62656 -10.84306,-9.017329 -16.88012,-11.288119 -8.79791,-3.30927 -29.31531,-7.26056 -37.75231,-7.27044 l -4.6741,-0.005 0,-7.91001 0,-7.91001 24.93267,0 c 13.71297,0 50.31083,0.42928 81.32857,0.95397 l 56.39592,0.95397 -0.4308,5.8774 -0.4307,5.8774 -9.8797,0.97645 c -28.497,2.81645 -48.503,13.297109 -56.93619,29.827529 -2.90694,5.6981 -2.93603,7.44068 -2.93603,175.89082 l 0,170.13572 c -5.26939,14.47425 -8.57004,30.34154 -16.44321,43.65378 -14.4558,23.71931 -37.36191,37.22891 -94.25199,55.58814 -27.4231,7.78447 -45.82871,6.84614 -76.26863,4.95647 z"
         id="path3819"
         inkscape:connector-curvature="0"
         sodipodi:nodetypes="csssccscccssccccsscccsssccccc" />
    </g>
    <g
       transform="matrix(1.8966567,0,0,1.8966567,-282.23073,-2188.4091)"
       id="g3888">
      <text
         xml:space="preserve"
         style="font-size:144px;font-style:normal;font-weight:normal;line-height:125%;letter-spacing:0px;word-spacing:0px;fill:#000000;fill-opacity:1;stroke:none;font-family:Sans"
         x="410.84747"
         y="1322.0339"
         id="text3863"
         sodipodi:linespacing="125%"><tspan
           sodipodi:role="line"
           id="tspan3865"
           x="410.84747"
           y="1322.0339"
           style="font-style:normal;font-variant:normal;font-weight:normal;font-stretch:normal;font-family:TG Termes Math;-inkscape-font-specification:TG Termes Math">Universidad</tspan></text>
      <text
         xml:space="preserve"
         style="font-size:144px;font-style:normal;font-variant:normal;font-weight:normal;font-stretch:normal;line-height:125%;letter-spacing:0px;word-spacing:0px;fill:#000000;fill-opacity:1;stroke:none;font-family:TG Termes Math;-inkscape-font-specification:TG Termes Math"
         x="585.7627"
         y="1440"
         id="text3871"
         sodipodi:linespacing="125%"><tspan
           sodipodi:role="line"
           id="tspan3873"
           x="585.7627"
           y="1440">Atlántico</tspan></text>
      <text
         xml:space="preserve"
         style="font-size:105.65068817px;font-style:normal;font-variant:normal;font-weight:normal;font-stretch:normal;line-height:125%;letter-spacing:0px;word-spacing:0px;fill:#000000;fill-opacity:1;stroke:none;font-family:TG Termes Math;-inkscape-font-specification:TG Termes Math"
         x="424.34976"
         y="1483.8492"
         id="text3875"
         sodipodi:linespacing="125%"
         transform="scale(1.0424424,0.95928563)"><tspan
           sodipodi:role="line"
           id="tspan3877"
           x="424.34976"
           y="1483.8492">del</tspan></text>
    </g>
  </g>
</svg>
